<?xml version="1.0" encoding="utf-8"?>
<!-- Generator: Adobe Illustrator 19.0.0, SVG Export Plug-In . SVG Version: 6.00 Build 0)  -->
<svg version="1.1" xmlns="http://www.w3.org/2000/svg" xmlns:xlink="http://www.w3.org/1999/xlink" x="0px" y="0px"
	 viewBox="0 0 512 512" style="enable-background:new 0 0 512 512;" xml:space="preserve">
<style type="text/css">
	.st0{fill:#59883D;}
	.st1{fill:#567635;}
	.st2{fill:#91C23E;}
	.st3{opacity:0.6;fill:#91C23E;}
	.st4{fill:#F1592B;}
	.st5{fill:#66499E;}
	.st6{fill:#543D98;}
	.st7{opacity:0.2;fill:#FFFFFF;}
	.st8{fill:#E0E1E0;}
	.st9{fill:#A9A8A8;}
</style>
<g id="Layer_5">
</g>
<g id="Layer_1">
	<g id="BeerBottle_2_">
		<path id="XMLID_131_" class="st0" d="M135.5,139.6c0.6-2.8-1.4-8.2-8-24.4S108,60.4,108,60.4c6.7-5.6-7.2-16-7.2-16l-18.5,1.4
			l-17.9,5c0,0-9.6,14.5-1.3,17.5c0,0,1,40.9,0.4,58.2c-0.6,17.4-0.7,23.2,0.8,25.6c1.5,2.4-19.3,27.8-13.1,63
			c26.3,149,39.8,225.5,42.7,242.2c2.9,16.7,11,33.5,65.2,23.9c54.2-9.6,56-28.1,53.1-44.8c-2.9-16.7-16.4-93.2-42.7-242.2
			C163.2,159.1,134.9,142.4,135.5,139.6z"/>
		<path id="XMLID_130_" class="st1" d="M212.7,440.4c-2,12.6-13.7,24.8-55.2,32.1c-41.5,7.3-56.6-0.1-62.8-11.3
			c3.7,15.2,14.4,28.8,64.4,20C209,472.4,214.4,456,212.7,440.4z"/>
		<path id="XMLID_129_" class="st2" d="M105.3,54.8c-1.6-2.8-5-5.9-5-5.9S91,52,83.6,53.3c-7.4,1.3-17.2,1.5-17.2,1.5
			s-2.2,4.1-2.7,7.3c-0.6,3.2,3.8,5.1,21.8,1.9C103.5,60.9,106.9,57.6,105.3,54.8z"/>
		<path id="XMLID_128_" class="st3" d="M127,123.9c-2.6-7.8-21.8-62.1-21.8-62.1s-9.4,4.1-19.1,5.8c-9.7,1.7-20,1.1-20,1.1
			s0.6,57.7,0.8,65.8c0.2,8.2,0.4,16.4,32.8,10.6C132.3,139.5,129.6,131.7,127,123.9z"/>
		<path id="XMLID_127_" class="st3" d="M100.5,149.5c-24,4.2-51.2,27.5-43.2,73.1c8,45.6,37.7,214,40.8,231.1
			c3,17.1,31.8,18.4,58.5,13.7c26.7-4.7,53.3-15.8,50.3-32.9c-3-17.1-32.7-185.5-40.8-231.1C158.1,157.8,124.6,145.2,100.5,149.5z"
			/>
		<path id="XMLID_126_" class="st4" d="M123.3,103.7c-1.3-3.6-2.7-7.5-4.1-11.3c-6-7.6-17.9-11.6-30.5-9.4
			c-12.1,2.1-21.5,9.4-25,18.1c0,4.9,0.1,9.9,0,14.4c4.4,10.4,18.2,16.5,33.1,13.8C112.3,126.5,123.4,115.5,123.3,103.7z"/>
		
			<ellipse id="XMLID_125_" transform="matrix(0.9848 -0.1736 0.1736 0.9848 -17.0121 17.743)" class="st5" cx="92.9" cy="106.1" rx="26.2" ry="20"/>
		<g id="XMLID_112_">
			<path id="XMLID_121_" class="st6" d="M101.2,363.9c-2.9-16.7-0.9-27.1,10.9-29.1c9.1-1.6,15,3.2,18.3,12.9l0.2,0
				c-0.6-12.2,3.2-20.1,13.2-21.9c14.7-2.6,20.8,9.1,23.9,26.9l4.9,27.9l-1.8,0.3l-1.1-6.2l-62.9,11.1l1.1,6.2l-1.8,0.3L101.2,363.9
				z M132.9,362.2l-0.4-2.5c-1.2-6.8-5.9-8.1-13.7-6.7l-4.5,0.8c-9.1,1.6-12.3,3.8-11.2,10.5l0.5,3L132.9,362.2z M166.5,356.2
				l-0.8-4.5c-1.3-7.3-7.2-8.4-15.9-6.9l-5,0.9c-7.8,1.4-12.1,4.7-10.5,13.9l0.4,2.2L166.5,356.2z"/>
			<path id="XMLID_118_" class="st6" d="M111.3,302.4c-2.6-14.9,3.8-22.6,18-24.5l4.7,26.8l3.7-0.7c11.2-2,18.5-5.3,16.8-14.5
				c-1.2-7-6.5-11-14.2-11.8l0-1.8c8.6,0.7,15.7,4.6,18.1,18.1c3,16.9-5.4,26.2-19.1,28.6C122.8,325.5,113.6,315.6,111.3,302.4z
				 M130.4,295.1l-4.7,0.8c-10,1.8-13.2,3.1-12.5,7c0.6,3.3,4.1,4.6,14.2,2.8l4.7-0.8L130.4,295.1z"/>
			<path id="XMLID_115_" class="st6" d="M102.7,253.4c-2.6-14.9,3.8-22.6,18-24.5l4.7,26.8l3.7-0.7c11.2-2,18.5-5.3,16.8-14.5
				c-1.2-7-6.5-11-14.2-11.8l0-1.8c8.6,0.7,15.7,4.6,18.1,18.1c3,16.9-5.4,26.2-19.1,28.6C114.2,276.5,105,266.6,102.7,253.4z
				 M121.7,246.1l-4.7,0.8c-10,1.8-13.2,3.1-12.5,7c0.6,3.3,4.1,4.6,14.2,2.8l4.7-0.8L121.7,246.1z"/>
			<path id="XMLID_113_" class="st6" d="M113.4,203l25.4-4.5l-1.2-6.7l1.7-0.3l5.2,29.6l-1.7,0.3l-0.9-5.2l-41.8,7.4l0.9,5.2
				l-1.7,0.3l-4-22.9l9.1-1.6c-7-0.5-11.3-5.3-12.3-10.9c-1-5.6,1.2-10.6,8.4-11.9c5.4-1,9.5,1.3,10.4,6.4c1.1,6.4-2.3,10.1-9.4,9.3
				l-0.6-3.4c-4.2-1.2-4.8,0.9-4.5,2.8C97.2,201.5,104.8,204.5,113.4,203z"/>
		</g>
		<g id="XMLID_100_">
			<g id="XMLID_101_">
				<path id="XMLID_110_" class="st4" d="M124.1,438.5l-12,2.1l-5.2-29.2l4.4-0.8l4.4,24.9l7.6-1.3L124.1,438.5z"/>
				<path id="XMLID_108_" class="st4" d="M131.5,437.2l-4.4,0.8l-5.2-29.2l4.4-0.8L131.5,437.2z"/>
				<path id="XMLID_106_" class="st4" d="M142.5,435.6c-1.9,0.3-3.7,0-5.3-1.2c-1.6-1.1-2.6-2.7-2.9-4.6l-2.8-16
					c-0.3-1.9,0.1-3.7,1.2-5.3c1.1-1.6,2.7-2.6,4.6-2.9c1.9-0.3,3.7,0.1,5.3,1.2c1.6,1.1,2.6,2.7,2.9,4.6l0.6,3.3l-4.6,0.8l-0.6-3.4
					c-0.1-0.7-0.5-1.3-1.1-1.7c-0.6-0.4-1.2-0.6-1.9-0.4c-0.7,0.1-1.3,0.5-1.7,1.1c-0.4,0.6-0.5,1.2-0.4,1.9l2.8,16
					c0.1,0.7,0.5,1.3,1.1,1.7c0.6,0.4,1.2,0.5,1.9,0.4c0.7-0.1,1.3-0.5,1.7-1c0.4-0.6,0.6-1.2,0.4-1.9l-1-5.7l-2.5,0.4l-0.8-4.4
					l7-1.2l1.8,10.2c0.3,1.9-0.1,3.7-1.2,5.3C145.9,434.3,144.4,435.3,142.5,435.6z"/>
				<path id="XMLID_104_" class="st4" d="M155.4,420.2l2.2,12.4l-4.4,0.8l-5.2-29.2l4.4-0.8l2.2,12.4l5.3-0.9l-2.2-12.4l4.4-0.8
					l5.2,29.2l-4.4,0.8l-2.2-12.4L155.4,420.2z"/>
				<path id="XMLID_102_" class="st4" d="M171.2,404.6l-4.7,0.8l-0.8-4.4l13.8-2.4l0.8,4.4l-4.7,0.8l4.4,24.8l-4.4,0.8L171.2,404.6z
					"/>
			</g>
		</g>
		<path id="XMLID_99_" class="st7" d="M82.3,45.8l-17.9,5c0,0-9.6,14.5-1.3,17.5c0,0,1,40.9,0.4,58.2s-0.7,23.2,0.8,25.6
			c1.5,2.4-19.3,27.8-13.1,63c26.3,149,39.8,225.5,42.7,242.2c2.9,16.7,11,33.5,65.2,23.9L82.3,45.8z"/>
		<g id="XMLID_5_">
			<path id="XMLID_98_" class="st8" d="M99.1,34.3c-5.7,1-18.3,3.2-18.3,3.2s-12.7,2.2-18.3,3.2c-5.7,1-5.1,13.2-5.1,13.2
				s4.7,0.4,25.8-3.3c21-3.7,25.3-5.7,25.3-5.7S104.8,33.3,99.1,34.3z"/>
			<g id="XMLID_91_">
				<path id="XMLID_97_" class="st9" d="M97.5,46.6c-0.4-2-2.1-3.4-3.6-3c-1.6,0.3-2.6,2.3-2.2,4.3c0.1,0.4,0.1,0.7,0.2,1.1
					c2.2-0.4,4.1-0.8,5.8-1.2C97.7,47.3,97.6,47.1,97.5,46.6z"/>
				<path id="XMLID_96_" class="st9" d="M89.7,48.3c-0.4-2-2-3.4-3.6-3.1c-1.6,0.3-2.6,2.2-2.2,4.2c0.1,0.4,0.1,0.7,0.2,1
					c2.1-0.4,4.1-0.7,5.9-1.1C89.9,49,89.8,48.7,89.7,48.3z"/>
				<path id="XMLID_95_" class="st9" d="M105.2,44.7c-0.5-2-2.1-3.3-3.7-2.9c-1.6,0.4-2.5,2.3-2.1,4.4c0.1,0.5,0.2,0.8,0.2,1.2
					c2.6-0.6,4.5-1.1,5.8-1.4C105.4,45.5,105.3,45.2,105.2,44.7z"/>
				<path id="XMLID_94_" class="st9" d="M78.4,46.5c-1.6,0.3-2.6,2.1-2.3,4.2c0.1,0.4,0.1,0.7,0.2,1.1c1.8-0.3,3.7-0.6,5.9-1
					c-0.1-0.3-0.1-0.6-0.2-1C81.6,47.7,80,46.2,78.4,46.5z"/>
				<path id="XMLID_93_" class="st9" d="M70.6,47.6c-1.6,0.2-2.7,2-2.4,4.1c0.1,0.5,0.1,0.8,0.2,1.2c1.7-0.2,3.7-0.5,5.9-0.9
					c-0.1-0.3-0.1-0.6-0.2-1.1C73.8,48.9,72.2,47.4,70.6,47.6z"/>
				<path id="XMLID_92_" class="st9" d="M60.5,53.8c1.4-0.1,3.3-0.3,5.9-0.6c-0.1-0.4-0.1-0.7-0.2-1.2c-0.3-2.1-1.8-3.6-3.5-3.4
					c-1.6,0.2-2.7,2-2.5,4C60.4,53.1,60.4,53.4,60.5,53.8z"/>
			</g>
		</g>
	</g>
</g>
<g id="Layer_2">
	<g id="BeerBottle_1_">
		<path id="XMLID_90_" class="st0" d="M447.7,152.2c1.5-2.4,1.4-8.2,0.8-25.6c-0.6-17.4,0.4-58.2,0.4-58.2c8.2-3-1.3-17.5-1.3-17.5
			l-17.9-5l-18.5-1.4c0,0-13.9,10.4-7.2,16c0,0-13.1,38.7-19.6,54.9c-6.5,16.1-8.6,21.5-8,24.4c0.6,2.8-27.7,19.5-33.9,54.7
			c-26.3,149-39.8,225.5-42.7,242.2c-2.9,16.7-1.1,35.2,53.1,44.8c54.2,9.6,62.2-7.2,65.2-23.9c2.9-16.7,16.4-93.2,42.7-242.2
			C467,180,446.2,154.6,447.7,152.2z"/>
		<path id="XMLID_89_" class="st1" d="M417.3,461.2c-6.2,11.2-21.3,18.7-62.8,11.3c-41.5-7.3-53.2-19.5-55.2-32.1
			c-1.8,15.6,3.7,32,53.6,40.8C402.9,490,413.6,476.5,417.3,461.2z"/>
		<path id="XMLID_88_" class="st2" d="M448.3,62.2c-0.6-3.2-2.7-7.3-2.7-7.3s-9.7-0.2-17.2-1.5c-7.4-1.3-16.7-4.4-16.7-4.4
			s-3.4,3.1-5,5.9c-1.6,2.8,1.8,6.1,19.8,9.3C444.5,67.3,448.9,65.3,448.3,62.2z"/>
		<path id="XMLID_87_" class="st3" d="M445,134.5c0.2-8.2,0.8-65.8,0.8-65.8s-10.3,0.6-20-1.1c-9.7-1.7-19.1-5.8-19.1-5.8
			s-19.2,54.4-21.8,62.1c-2.6,7.8-5.3,15.5,27.2,21.2C444.7,150.9,444.8,142.7,445,134.5z"/>
		<path id="XMLID_86_" class="st3" d="M411.5,149.5c-24-4.2-57.5,8.3-65.6,54c-8,45.6-37.7,214-40.8,231.1
			c-3,17.1,23.6,28.2,50.3,32.9c26.7,4.7,55.5,3.4,58.5-13.7c3-17.1,32.7-185.5,40.8-231.1C462.7,177,435.5,153.7,411.5,149.5z"/>
		<path id="XMLID_85_" class="st4" d="M448.5,114.2c0-3.8,0-7.9,0-12.1c-3.1-9.2-12.8-17-25.4-19.2c-12.1-2.1-23.4,1.5-29.7,8.4
			c-1.7,4.7-3.3,9.3-4.9,13.5c0.6,11.3,11.5,21.7,26.4,24.3C430.3,131.9,444.6,125.3,448.5,114.2z"/>
		
			<ellipse id="XMLID_84_" transform="matrix(0.9848 0.1736 -0.1736 0.9848 24.7905 -71.1649)" class="st5" cx="419.1" cy="106.1" rx="26.2" ry="20"/>
		<g id="XMLID_71_">
			<path id="XMLID_80_" class="st6" d="M338.7,351.2c2.9-16.7,8.5-25.7,20.2-23.7c9.1,1.6,13,8.2,12.8,18.4l0.2,0
				c3.6-11.7,9.9-17.8,19.9-16.1c14.7,2.6,16.4,15.6,13.3,33.5l-4.9,27.9l-1.8-0.3l1.1-6.2l-62.9-11.1l-1.1,6.2l-1.8-0.3
				L338.7,351.2z M369.1,360.4l0.4-2.5c1.2-6.8-2.8-9.6-10.6-11l-4.5-0.8c-9.1-1.6-12.9-0.6-14.1,6l-0.5,3L369.1,360.4z
				 M402.7,366.3l0.8-4.5c1.3-7.3-3.9-10.4-12.6-11.9l-5-0.9c-7.8-1.4-13,0.3-14.6,9.5l-0.4,2.2L402.7,366.3z"/>
			<path id="XMLID_77_" class="st6" d="M369.3,296.8c2.6-14.9,11.3-19.9,25.3-16.9l-4.7,26.8l3.7,0.7c11.2,2,19.2,1.3,20.8-7.9
				c1.2-7-2.4-12.6-9.3-15.9l0.6-1.7c7.8,3.6,13.2,9.7,10.8,23.2c-3,16.9-14,22.8-27.8,20.4C372.2,322.5,366.9,310,369.3,296.8z
				 M389.7,296.5l-4.7-0.8c-10-1.8-13.4-1.6-14.1,2.3c-0.6,3.3,2.3,5.7,12.4,7.5l4.7,0.8L389.7,296.5z"/>
			<path id="XMLID_74_" class="st6" d="M377.9,247.8c2.6-14.9,11.3-19.9,25.3-16.9l-4.7,26.8l3.7,0.7c11.2,2,19.2,1.3,20.8-7.9
				c1.2-7-2.4-12.6-9.3-15.9l0.6-1.7c7.8,3.6,13.2,9.7,10.8,23.2c-3,16.9-14,22.8-27.8,20.4C380.8,273.5,375.6,261,377.9,247.8z
				 M398.3,247.5l-4.7-0.8c-10-1.8-13.4-1.6-14.1,2.3c-0.6,3.3,2.3,5.7,12.4,7.5l4.7,0.8L398.3,247.5z"/>
			<path id="XMLID_72_" class="st6" d="M405.2,204.2l25.4,4.5l1.2-6.7l1.7,0.3l-5.2,29.6l-1.7-0.3l0.9-5.2l-41.8-7.4l-0.9,5.2
				l-1.7-0.3l4-22.9l9.1,1.6c-6.4-2.9-8.8-8.8-7.8-14.5c1-5.6,4.7-9.5,11.9-8.3c5.4,1,8.5,4.4,7.6,9.6c-1.1,6.4-5.6,8.7-12,5.5
				l0.6-3.4c-3.6-2.6-4.8-0.9-5.2,1.1C390.6,197.2,396.6,202.7,405.2,204.2z"/>
		</g>
		<g id="XMLID_59_">
			<g id="XMLID_60_">
				<path id="XMLID_69_" class="st4" d="M334.7,429.1l-12-2.1l5.2-29.2l4.4,0.8l-4.4,24.9l7.6,1.3L334.7,429.1z"/>
				<path id="XMLID_67_" class="st4" d="M342.1,430.4l-4.4-0.8l5.2-29.2l4.4,0.8L342.1,430.4z"/>
				<path id="XMLID_65_" class="st4" d="M353,432.7c-1.9-0.3-3.5-1.3-4.6-2.9c-1.1-1.6-1.5-3.4-1.2-5.3l2.8-16
					c0.3-1.9,1.3-3.5,2.9-4.6c1.6-1.1,3.4-1.5,5.3-1.2c1.9,0.3,3.5,1.3,4.6,2.9c1.1,1.6,1.5,3.4,1.2,5.3l-0.6,3.3l-4.6-0.8l0.6-3.4
					c0.1-0.7,0-1.3-0.4-1.9c-0.4-0.6-1-0.9-1.7-1.1c-0.7-0.1-1.3,0-1.9,0.4c-0.6,0.4-0.9,1-1.1,1.7l-2.8,16c-0.1,0.7,0,1.3,0.4,1.9
					c0.4,0.6,1,0.9,1.7,1c0.7,0.1,1.3,0,1.9-0.4c0.6-0.4,0.9-1,1.1-1.6l1-5.7l-2.5-0.4l0.8-4.4l7,1.2l-1.8,10.2
					c-0.3,1.9-1.3,3.5-2.9,4.6C356.6,432.7,354.9,433.1,353,432.7z"/>
				<path id="XMLID_63_" class="st4" d="M370.4,422.6l-2.2,12.4l-4.4-0.8L369,405l4.4,0.8l-2.2,12.4l5.3,0.9l2.2-12.4l4.4,0.8
					l-5.2,29.2l-4.4-0.8l2.2-12.4L370.4,422.6z"/>
				<path id="XMLID_61_" class="st4" d="M390.6,413.4l-4.7-0.8l0.8-4.4l13.8,2.4l-0.8,4.4l-4.7-0.8l-4.4,24.8l-4.4-0.8L390.6,413.4z
					"/>
			</g>
		</g>
		<path id="XMLID_58_" class="st7" d="M429.7,45.8l-18.5-1.4c0,0-13.9,10.4-7.2,16c0,0-13.1,38.7-19.6,54.9
			c-6.5,16.1-8.6,21.5-8,24.4c0.6,2.8-27.7,19.5-33.9,54.7c-26.3,149-39.8,225.5-42.7,242.2c-2.9,16.7-1.1,35.2,53.1,44.8
			L429.7,45.8z"/>
		<g id="XMLID_2_">
			<path id="XMLID_57_" class="st8" d="M449.5,40.7c-5.7-1-18.3-3.2-18.3-3.2s-12.7-2.2-18.3-3.2c-5.7-1-9.3,10.6-9.3,10.6
				s4.3,2,25.3,5.7c21,3.7,25.8,3.3,25.8,3.3S455.2,41.7,449.5,40.7z"/>
			<g id="XMLID_50_">
				<path id="XMLID_56_" class="st9" d="M443.8,51.8c0.3-2.1-0.8-3.9-2.4-4.1c-1.6-0.2-3.2,1.3-3.5,3.3c-0.1,0.4-0.1,0.7-0.2,1.1
					c2.2,0.3,4.2,0.6,5.9,0.9C443.7,52.5,443.7,52.2,443.8,51.8z"/>
				<path id="XMLID_55_" class="st9" d="M435.9,50.7c0.3-2.1-0.7-3.9-2.3-4.2c-1.6-0.3-3.2,1.2-3.6,3.2c-0.1,0.4-0.1,0.7-0.2,1
					c2.1,0.4,4.1,0.7,5.9,1C435.8,51.4,435.9,51.1,435.9,50.7z"/>
				<path id="XMLID_54_" class="st9" d="M451.7,52.6c0.3-2.1-0.8-3.9-2.5-4c-1.6-0.2-3.2,1.3-3.5,3.4c-0.1,0.5-0.1,0.8-0.2,1.2
					c2.6,0.3,4.6,0.5,5.9,0.6C451.6,53.4,451.6,53.1,451.7,52.6z"/>
				<path id="XMLID_53_" class="st9" d="M425.9,45.1c-1.6-0.3-3.2,1.1-3.6,3.1c-0.1,0.4-0.1,0.7-0.2,1c1.8,0.3,3.7,0.7,5.9,1.1
					c0.1-0.3,0.1-0.6,0.2-1C428.5,47.3,427.5,45.4,425.9,45.1z"/>
				<path id="XMLID_52_" class="st9" d="M418.1,43.5c-1.6-0.3-3.2,1-3.6,3c-0.1,0.5-0.2,0.8-0.2,1.1c1.7,0.4,3.6,0.8,5.8,1.2
					c0.1-0.3,0.1-0.6,0.2-1.1C420.7,45.8,419.7,43.9,418.1,43.5z"/>
				<path id="XMLID_51_" class="st9" d="M406.5,45.8c1.3,0.4,3.2,0.9,5.8,1.4c0.1-0.4,0.1-0.7,0.2-1.2c0.4-2-0.5-4-2.1-4.4
					c-1.6-0.4-3.2,0.9-3.7,2.9C406.7,45.2,406.6,45.5,406.5,45.8z"/>
			</g>
		</g>
	</g>
</g>
<g id="Layer_3">
	<g id="BeerBottle">
		<path id="XMLID_49_" class="st0" d="M298.9,127.4c1.2-2.9,0-9-3.9-27.4c-3.9-18.4-10.5-62-10.5-62c8.2-4.7-4.7-18.3-4.7-18.3
			l-19.9-2l-19.9,2c0,0-12.9,13.6-4.7,18.3c0,0-6.6,43.6-10.5,62c-3.9,18.4-5.1,24.5-3.9,27.4c1.2,2.9-25.8,25.9-25.8,64.4
			c0,163.3,0,247.1,0,265.4s5.4,37.6,64.8,37.6c59.4,0,64.8-19.4,64.8-37.6s0-102.1,0-265.4C324.7,153.3,297.8,130.3,298.9,127.4z"
			/>
		<path id="XMLID_48_" class="st1" d="M324.6,461.5c-4.5,13.1-19.2,23.8-64.7,23.8c-45.5,0-60.2-10.8-64.7-23.8
			c1.1,16.9,9.9,33.3,64.7,33.3S323.5,478.4,324.6,461.5z"/>
		<path id="XMLID_47_" class="st2" d="M282.7,31.6c-1.2-3.3-4.3-7.2-4.3-7.2S268.1,26,259.9,26c-8.2,0-18.5-1.6-18.5-1.6
			s-3.1,4-4.3,7.2c-1.2,3.3,3.1,6.1,22.8,6.1C279.6,37.7,283.9,34.9,282.7,31.6z"/>
		<path id="XMLID_45_" class="st3" d="M292.8,109.1c-1.3-8.7-11.5-70.1-11.5-70.1s-10.8,2.6-21.4,2.6c-10.6,0-21.4-2.6-21.4-2.6
			s-10.2,61.4-11.5,70.1c-1.3,8.7-2.7,17.5,32.9,17.5C295.5,126.6,294.1,117.9,292.8,109.1z"/>
		<path id="XMLID_44_" class="st3" d="M259.9,131.3c-26.3,0-59.6,19.6-59.6,69.7c0,50,0,234.5,0,253.3c0,18.8,30.4,25.5,59.6,25.5
			s59.6-6.8,59.6-25.5c0-18.8,0-203.3,0-253.3C319.5,150.9,286.2,131.3,259.9,131.3z"/>
		<path id="XMLID_43_" class="st4" d="M292.6,86.9c-0.7-4.1-1.5-8.4-2.2-12.8c-5-9.2-16.8-15.7-30.6-15.7c-13.2,0-24.6,6-29.9,14.5
			c-0.9,5.3-1.8,10.5-2.7,15.3c2.8,11.9,16.3,20.9,32.6,20.9C276.7,109.1,290.6,99.4,292.6,86.9z"/>
		<ellipse id="XMLID_42_" class="st5" cx="259.9" cy="83.8" rx="28.3" ry="21.6"/>
		<g id="XMLID_29_">
			<path id="XMLID_38_" class="st6" d="M220.4,359.4c0-18.3,4.2-28.9,17.1-28.9c10,0,15.3,6.2,17.1,17.2h0.2
				c1.7-13.1,7.2-20.8,18.1-20.8c16.1,0,20.4,13.5,20.4,33.1v30.6h-2v-6.8h-68.9v6.8h-2V359.4z M254.4,363.4v-2.7
				c0-7.5-4.8-9.7-13.3-9.7h-4.9c-10,0-13.8,1.8-13.8,9.1v3.3H254.4z M291.3,363.4v-4.9c0-8-6-10.3-15.6-10.3h-5.5
				c-8.5,0-13.7,2.7-13.7,12.8v2.4H291.3z"/>
			<path id="XMLID_35_" class="st6" d="M242.7,295.8c0-16.3,8.2-23.3,23.7-22.7v29.3h4.1c12.3,0,20.6-2.2,20.6-12.3
				c0-7.7-4.9-12.9-12.9-15.2l0.3-1.9c8.9,2.4,15.8,7.8,15.8,22.6c0,18.5-10.6,26.8-25.7,26.8C250.6,322.5,242.7,310.3,242.7,295.8z
				 M264.3,291.6h-5.1c-10.9,0-14.6,0.8-14.6,5.1c0,3.6,3.5,5.6,14.6,5.6h5.1V291.6z"/>
			<path id="XMLID_32_" class="st6" d="M242.7,242.1c0-16.3,8.2-23.3,23.7-22.7v29.3h4.1c12.3,0,20.6-2.2,20.6-12.3
				c0-7.7-4.9-12.9-12.9-15.2l0.3-1.9c8.9,2.4,15.8,7.8,15.8,22.6c0,18.5-10.6,26.8-25.7,26.8C250.6,268.9,242.7,256.6,242.7,242.1z
				 M264.3,238h-5.1c-10.9,0-14.6,0.8-14.6,5.1c0,3.6,3.5,5.6,14.6,5.6h5.1V238z"/>
			<path id="XMLID_30_" class="st6" d="M263.5,190.6h27.9v-7.4h1.9v32.5h-1.9V210h-45.8v5.7h-1.9v-25.1h10c-7.4-1.9-11-7.7-11-13.9
				c0-6.1,3.2-11,11.1-11c5.9,0,9.9,3.1,9.9,8.7c0,7-4.4,10.3-11.8,8.1v-3.7c-4.3-2.1-5.3,0-5.3,2.2
				C246.6,185.9,254.1,190.6,263.5,190.6z"/>
		</g>
		<g id="XMLID_17_">
			<g id="XMLID_18_">
				<path id="XMLID_27_" class="st4" d="M230.7,442.9h-13.2v-32h4.8v27.2h8.3V442.9z"/>
				<path id="XMLID_25_" class="st4" d="M238.9,442.9H234v-32h4.8V442.9z"/>
				<path id="XMLID_23_" class="st4" d="M250.8,443.3c-2.1,0-3.9-0.8-5.4-2.2c-1.5-1.5-2.2-3.3-2.2-5.4v-17.5c0-2.1,0.8-3.9,2.3-5.4
					c1.5-1.5,3.3-2.2,5.4-2.2c2.1,0,3.9,0.7,5.4,2.3c1.5,1.5,2.2,3.3,2.2,5.4v3.7h-5v-3.8c0-0.8-0.3-1.4-0.8-2
					c-0.5-0.5-1.2-0.8-2-0.8c-0.8,0-1.4,0.3-2,0.8c-0.5,0.5-0.8,1.2-0.8,2v17.5c0,0.8,0.3,1.4,0.8,2c0.5,0.5,1.2,0.8,2,0.8
					c0.8,0,1.4-0.3,2-0.8c0.5-0.5,0.8-1.2,0.8-2v-6.3h-2.7v-4.9h7.7v11.2c0,2.1-0.7,3.9-2.2,5.4
					C254.7,442.6,252.9,443.3,250.8,443.3z"/>
				<path id="XMLID_21_" class="st4" d="M267.5,429.3v13.6h-4.8v-32h4.8v13.6h5.8v-13.6h4.8v32h-4.8v-13.6H267.5z"/>
				<path id="XMLID_19_" class="st4" d="M287.2,415.7h-5.1v-4.9h15.1v4.9H292v27.2h-4.8V415.7z"/>
			</g>
		</g>
		<path id="XMLID_16_" class="st7" d="M259.9,17.7l-19.9,2c0,0-12.9,13.6-4.7,18.3c0,0-6.6,43.6-10.5,62s-5.1,24.5-3.9,27.4
			c1.2,2.9-25.8,25.9-25.8,64.4c0,163.3,0,247.1,0,265.4s5.4,37.6,64.8,37.6V17.7z"/>
		<g id="XMLID_3_">
			<path id="XMLID_15_" class="st8" d="M280,8.6c-6.2,0-20.1,0-20.1,0s-13.9,0-20.1,0c-6.2,0-7.9,13-7.9,13s4.9,1.3,28,1.3
				c23.1,0,28-1.3,28-1.3S286.2,8.6,280,8.6z"/>
			<g id="XMLID_6_">
				<path id="XMLID_14_" class="st9" d="M276,21.4c-0.1-2.2-1.6-4-3.3-3.9c-1.8,0.1-3.1,1.9-3.1,4.2c0,0.5,0,0.8,0,1.2
					c2.4,0,4.6-0.1,6.4-0.2C276,22.2,276,21.9,276,21.4z"/>
				<path id="XMLID_13_" class="st9" d="M267.4,21.7c0-2.2-1.5-4-3.2-4c-1.8,0-3.2,1.8-3.2,4.1c0,0.5,0,0.8,0,1.1c2.3,0,4.5,0,6.4,0
					C267.4,22.5,267.4,22.2,267.4,21.7z"/>
				<path id="XMLID_12_" class="st9" d="M284.5,20.8c-0.1-2.2-1.6-3.9-3.4-3.8s-3.1,2-3,4.3c0,0.5,0,0.9,0,1.3
					c2.9-0.1,4.9-0.3,6.4-0.5C284.6,21.7,284.5,21.3,284.5,20.8z"/>
				<path id="XMLID_11_" class="st9" d="M255.7,17.7c-1.8,0-3.2,1.8-3.2,4c0,0.5,0,0.8,0,1.1c2,0,4.1,0,6.4,0c0-0.3,0-0.7,0-1.1
					C258.8,19.6,257.4,17.7,255.7,17.7z"/>
				<path id="XMLID_10_" class="st9" d="M247.2,17.5c-1.8-0.1-3.2,1.7-3.3,3.9c0,0.5,0,0.8,0,1.3c1.9,0.1,4,0.1,6.4,0.2
					c0-0.4,0-0.7,0-1.2C250.3,19.4,248.9,17.5,247.2,17.5z"/>
				<path id="XMLID_7_" class="st9" d="M235.2,22.1c1.5,0.1,3.6,0.3,6.4,0.5c0-0.4,0-0.8,0-1.3c0.1-2.2-1.3-4.1-3-4.3
					c-1.8-0.1-3.3,1.6-3.4,3.8C235.3,21.3,235.3,21.7,235.2,22.1z"/>
			</g>
		</g>
	</g>
</g>
</svg>
